<svg xmlns="http://www.w3.org/2000/svg" version="1.1" xmlns:xlink="http://www.w3.org/1999/xlink" xmlns:svgjs="http://svgjs.com/svgjs" width="3840" height="2160" preserveAspectRatio="none" viewBox="0 0 3840 2160"><g mask="url(&quot;#SvgjsMask1192&quot;)" fill="none"><rect width="3840" height="2160" x="0" y="0" fill="rgba(14, 60, 71, 1)"></rect><path d="M 0,749 C 192,670.2 576,351.8 960,355 C 1344,358.2 1536,743.6 1920,765 C 2304,786.4 2496,490.2 2880,462 C 3264,433.8 3648,591.6 3840,624L3840 2160L0 2160z" fill="rgba(24, 106, 126, 1)"></path><path d="M 0,1691 C 256,1673.4 768,1551 1280,1603 C 1792,1655 2048,1973.2 2560,1951 C 3072,1928.8 3584,1583.8 3840,1492L3840 2160L0 2160z" fill="rgba(34, 157, 171, 1)"></path></g><defs><mask id="SvgjsMask1192"><rect width="3840" height="2160" fill="#ffffff"></rect></mask></defs></svg>