<svg xmlns="http://www.w3.org/2000/svg" version="1.1" xmlns:xlink="http://www.w3.org/1999/xlink" xmlns:svgjs="http://svgjs.com/svgjs" width="3840" height="2160" preserveAspectRatio="none" viewBox="0 0 3840 2160"><g mask="url(&quot;#SvgjsMask1124&quot;)" fill="none"><rect width="3840" height="2160" x="0" y="0" fill="#0e2a47"></rect><path d="M 0,248 C 153.6,319.2 460.8,561.4 768,604 C 1075.2,646.6 1228.8,450.4 1536,461 C 1843.2,471.6 1996.8,697.2 2304,657 C 2611.2,616.8 2764.8,249.2 3072,260 C 3379.2,270.8 3686.4,620.8 3840,711L3840 2160L0 2160z" fill="#184a7e"></path><path d="M 0,1897 C 256,1798 768,1385.4 1280,1402 C 1792,1418.6 2048,2018.2 2560,1980 C 3072,1941.8 3584,1364.8 3840,1211L3840 2160L0 2160z" fill="#2264ab"></path></g><defs><mask id="SvgjsMask1124"><rect width="3840" height="2160" fill="#ffffff"></rect></mask></defs></svg>